<?xml version="1.0" encoding="UTF-8" standalone="no"?>
<svg
   height="16"
   viewBox="0 0 16 16"
   width="16"
   version="1.1"
   id="svg4"
   sodipodi:docname="AngularActuator3D.svg"
   inkscape:version="1.2.2 (1:1.2.2+202212051550+b0a8486541)"
   xmlns:inkscape="http://www.inkscape.org/namespaces/inkscape"
   xmlns:sodipodi="http://sodipodi.sourceforge.net/DTD/sodipodi-0.dtd"
   xmlns="http://www.w3.org/2000/svg"
   xmlns:svg="http://www.w3.org/2000/svg">
  <defs
     id="defs8" />
  <sodipodi:namedview
     id="namedview6"
     pagecolor="#ffffff"
     bordercolor="#666666"
     borderopacity="1.0"
     inkscape:showpageshadow="2"
     inkscape:pageopacity="0.0"
     inkscape:pagecheckerboard="0"
     inkscape:deskcolor="#d1d1d1"
     showgrid="false"
     inkscape:zoom="29.5"
     inkscape:cx="8.8813559"
     inkscape:cy="7.5423729"
     inkscape:window-width="2560"
     inkscape:window-height="1371"
     inkscape:window-x="1920"
     inkscape:window-y="0"
     inkscape:window-maximized="1"
     inkscape:current-layer="svg4" />
  <path
     d="M 5.6256935,5.7486156 A 4.6256935,4.6256935 0 0 0 1,10.374309 a 4.6256935,4.6256935 0 0 0 0.023232,0.462054 4.6256935,4.6256935 0 0 0 0.1832699,0.90472 4.6256935,4.6256935 0 0 0 0.6014459,1.245501 4.6256935,4.6256935 0 0 0 0.200048,0.269744 c 5.188e-4,-0.0017 7.732e-4,-0.0035 0.00129,-0.0052 a 4.6256935,4.6256935 0 0 0 3.6164333,1.748843 4.6256935,4.6256935 0 0 0 2.142489,-0.530455 c 9.251e-4,2.6e-4 0.00165,0.0011 0.00258,0.0013 a 4.6256935,4.6256935 0 0 0 0.023234,-0.0142 4.6256935,4.6256935 0 0 0 0.2813611,-0.165203 4.6256935,4.6256935 0 0 0 0.1122854,-0.06841 4.6256935,4.6256935 0 0 0 0.2439327,-0.178109 4.6256935,4.6256935 0 0 0 0.1355196,-0.103252 4.6256935,4.6256935 0 0 0 0.225866,-0.203921 4.6256935,4.6256935 0 0 0 0.108413,-0.101963 4.6256935,4.6256935 0 0 0 0.2181213,-0.238772 4.6256935,4.6256935 0 0 0 0.092924,-0.105836 4.6256935,4.6256935 0 0 0 0.18327,-0.246516 4.6256935,4.6256935 0 0 0 0.091635,-0.129064 4.6256935,4.6256935 0 0 0 0.144553,-0.238771 4.6256935,4.6256935 0 0 0 0.094219,-0.165204 4.6256935,4.6256935 0 0 0 0.1032521,-0.220698 4.6256935,4.6256935 0 0 0 0.091635,-0.205216 4.6256935,4.6256935 0 0 0 0.070985,-0.20392 4.6256935,4.6256935 0 0 0 0.078729,-0.233611 4.6256935,4.6256935 0 0 0 0.05808,-0.243933 4.6256935,4.6256935 0 0 0 0.04388,-0.193598 4.6256935,4.6256935 0 0 0 0.03743,-0.264583 4.6256935,4.6256935 0 0 0 0.02452,-0.206504 4.6256935,4.6256935 0 0 0 0.01678,-0.365252 4.6256935,4.6256935 0 0 0 -2.8975344,-4.287555 4.6256935,4.6256935 0 0 0 -0.00515,-0.00258 4.6256935,4.6256935 0 0 0 -0.00132,0 A 4.6256935,4.6256935 0 0 0 6.9408482,5.9435357 4.6256935,4.6256935 0 0 0 6.9111632,5.9332105 4.6256935,4.6256935 0 0 0 6.9072908,5.9319219 4.6256935,4.6256935 0 0 0 6.543328,5.8454478 4.6256935,4.6256935 0 0 0 6.4504045,5.8247974 4.6256935,4.6256935 0 0 0 6.0864417,5.7770431 4.6256935,4.6256935 0 0 0 5.9922229,5.7654273 4.6256935,4.6256935 0 0 0 5.6256763,5.7486486 Z m 1.289379,0.881525 A 3.9648802,3.9648802 0 0 1 9.5905737,10.374309 H 4.9648802 A 1.3216267,1.3216267 0 0 0 4.3376229,9.251455 C 5.227342,7.9107308 6.0582487,7.0951549 6.9150593,6.6301406 Z M 2.4029728,8.0705155 c 0.09669,0.4301432 0.2364126,0.8480217 0.4517254,1.245501 A 1.3216267,1.3216267 0 0 0 2.3216598,10.374375 H 1.6608464 A 3.9648802,3.9648802 0 0 1 2.4029398,8.0705815 Z m 1.2403467,0.9821669 a 1.3216267,1.3216267 0 0 0 -0.07228,0.00258 1.3216267,1.3216267 0 0 1 0.07228,-0.00258 z m -0.1251911,0.00774 a 1.3216267,1.3216267 0 0 0 -0.080018,0.00903 1.3216267,1.3216267 0 0 1 0.080018,-0.00903 z m -0.2916896,0.061951 a 1.3216267,1.3216267 0 0 0 -0.037429,0.012906 1.3216267,1.3216267 0 0 1 0.037429,-0.012906 z M 2.3281291,10.483984 a 1.3216267,1.3216267 0 0 0 0.00903,0.07873 1.3216267,1.3216267 0 0 1 -0.00903,-0.07873 z m 0.018069,0.138096 a 1.3216267,1.3216267 0 0 0 0.011616,0.05292 1.3216267,1.3216267 0 0 1 -0.011616,-0.05292 z m 0.4852881,0.792448 a 1.3216267,1.3216267 0 0 0 0.8118092,0.281361 1.3216267,1.3216267 0 0 0 0.6943827,-0.19876 c 0.888794,1.339337 1.7189738,2.157226 2.5748593,2.622637 A 3.9648802,3.9648802 0 0 1 5.6257358,14.339175 3.9648802,3.9648802 0 0 1 2.2855225,12.509053 c 0.157082,-0.382281 0.332627,-0.753526 0.5459442,-1.094505 z"
     fill="#fc7f7f"
     id="path2"
     style="stroke-width:1" />
  <path
     style="fill:none;fill-opacity:1;stroke:#fc7f7f;stroke-width:1;stroke-linecap:round;stroke-miterlimit:3.6;stroke-dasharray:none;stroke-opacity:1;stop-color:#000000"
     d="m 6.321542,1.2647077 c 4.879465,0.8207812 6.936195,5.9636133 6.936195,5.9636133"
     id="path441"
     sodipodi:nodetypes="cc" />
  <path
     style="fill:none;fill-opacity:1;stroke:#fc7f7f;stroke-width:0.9;stroke-linecap:round;stroke-miterlimit:3.6;stroke-dasharray:none;stroke-opacity:1;stop-color:#000000"
     d="M 13.295381,7.3463585 10.633092,6.75454"
     id="path2518"
     sodipodi:nodetypes="cc" />
  <path
     style="fill:none;fill-opacity:1;stroke:#fc7f7f;stroke-width:0.9;stroke-linecap:round;stroke-miterlimit:3.6;stroke-dasharray:none;stroke-opacity:1;stop-color:#000000"
     d="M 13.315422,7.3571674 14.24386,4.8425851"
     id="path2520"
     sodipodi:nodetypes="cc" />
</svg>
