<?xml version="1.0" encoding="UTF-8" standalone="no"?>
<svg
   height="16"
   viewBox="0 0 16 16"
   width="16"
   version="1.1"
   id="svg4"
   sodipodi:docname="LinearActuator3D.svg"
   inkscape:version="1.2.2 (1:1.2.2+202212051550+b0a8486541)"
   xmlns:inkscape="http://www.inkscape.org/namespaces/inkscape"
   xmlns:sodipodi="http://sodipodi.sourceforge.net/DTD/sodipodi-0.dtd"
   xmlns="http://www.w3.org/2000/svg"
   xmlns:svg="http://www.w3.org/2000/svg">
  <defs
     id="defs8" />
  <sodipodi:namedview
     id="namedview6"
     pagecolor="#ffffff"
     bordercolor="#666666"
     borderopacity="1.0"
     inkscape:showpageshadow="2"
     inkscape:pageopacity="0.0"
     inkscape:pagecheckerboard="0"
     inkscape:deskcolor="#d1d1d1"
     showgrid="false"
     inkscape:zoom="14.75"
     inkscape:cx="6.779661"
     inkscape:cy="8.0338983"
     inkscape:window-width="2560"
     inkscape:window-height="1371"
     inkscape:window-x="1920"
     inkscape:window-y="0"
     inkscape:window-maximized="1"
     inkscape:current-layer="svg4" />
  <path
     d="M 5.9011448,5.1977126 A 4.9011448,4.9011448 0 0 0 1,10.098857 a 4.9011448,4.9011448 0 0 0 0.024615,0.489569 4.9011448,4.9011448 0 0 0 0.1941834,0.958594 4.9011448,4.9011448 0 0 0 0.6372609,1.319668 4.9011448,4.9011448 0 0 0 0.2119605,0.285807 c 5.496e-4,-0.0018 8.192e-4,-0.0037 0.00137,-0.0055 a 4.9011448,4.9011448 0 0 0 3.8317851,1.852982 4.9011448,4.9011448 0 0 0 2.2700701,-0.562042 c 9.802e-4,2.75e-4 0.00175,0.0011 0.00273,0.0014 a 4.9011448,4.9011448 0 0 0 0.024618,-0.01504 4.9011448,4.9011448 0 0 0 0.2981156,-0.175041 4.9011448,4.9011448 0 0 0 0.1189718,-0.07248 4.9011448,4.9011448 0 0 0 0.2584584,-0.188715 4.9011448,4.9011448 0 0 0 0.1435895,-0.109401 4.9011448,4.9011448 0 0 0 0.2393159,-0.216063 4.9011448,4.9011448 0 0 0 0.1148688,-0.108035 4.9011448,4.9011448 0 0 0 0.23111,-0.25299 4.9011448,4.9011448 0 0 0 0.098457,-0.112139 4.9011448,4.9011448 0 0 0 0.1941834,-0.261196 4.9011448,4.9011448 0 0 0 0.097092,-0.136749 4.9011448,4.9011448 0 0 0 0.1531606,-0.25299 4.9011448,4.9011448 0 0 0 0.09983,-0.175041 4.9011448,4.9011448 0 0 0 0.1094,-0.23384 4.9011448,4.9011448 0 0 0 0.09709,-0.217436 4.9011448,4.9011448 0 0 0 0.07521,-0.216063 4.9011448,4.9011448 0 0 0 0.08342,-0.247522 4.9011448,4.9011448 0 0 0 0.06154,-0.258459 4.9011448,4.9011448 0 0 0 0.0465,-0.205126 4.9011448,4.9011448 0 0 0 0.03966,-0.280339 4.9011448,4.9011448 0 0 0 0.02598,-0.218801 4.9011448,4.9011448 0 0 0 0.01778,-0.387001 4.9011448,4.9011448 0 0 0 -3.0700777,-4.5428717 4.9011448,4.9011448 0 0 0 -0.00546,-0.00274 4.9011448,4.9011448 0 0 0 -0.0014,0 4.9011448,4.9011448 0 0 0 -0.4307615,-0.1490578 4.9011448,4.9011448 0 0 0 -0.031453,-0.01094 4.9011448,4.9011448 0 0 0 -0.0041,-0.00137 A 4.9011448,4.9011448 0 0 0 6.8734228,5.3003111 4.9011448,4.9011448 0 0 0 6.7749658,5.278431 4.9011448,4.9011448 0 0 0 6.3893297,5.227833 4.9011448,4.9011448 0 0 0 6.2895004,5.2155255 4.9011448,4.9011448 0 0 0 5.9011266,5.1977477 Z M 7.267304,6.1317308 a 4.2009813,4.2009813 0 0 1 2.834822,3.9671262 H 5.2009813 A 1.4003271,1.4003271 0 0 0 4.5363721,8.9091396 C 5.4790723,7.4885778 6.3594579,6.6244359 7.26729,6.1317308 Z M 2.4865172,7.6578773 C 2.5889652,8.1136348 2.7370077,8.5563972 2.965142,8.9775456 A 1.4003271,1.4003271 0 0 0 2.4003621,10.098928 H 1.7001986 A 4.2009813,4.2009813 0 0 1 2.4864822,7.6579473 Z m 1.314207,1.0406531 a 1.4003271,1.4003271 0 0 0 -0.076584,0.00274 1.4003271,1.4003271 0 0 1 0.076584,-0.00274 z m -0.132646,0.00821 a 1.4003271,1.4003271 0 0 0 -0.084783,0.00957 1.4003271,1.4003271 0 0 1 0.084783,-0.00957 z M 3.359019,8.7723804 A 1.4003271,1.4003271 0 0 0 3.319361,8.7860554 1.4003271,1.4003271 0 0 1 3.359019,8.7723804 Z M 2.4072167,10.215063 a 1.4003271,1.4003271 0 0 0 0.00957,0.08342 1.4003271,1.4003271 0 0 1 -0.00957,-0.08342 z m 0.019145,0.14632 a 1.4003271,1.4003271 0 0 0 0.012307,0.05607 1.4003271,1.4003271 0 0 1 -0.012307,-0.05607 z m 0.5141861,0.839636 A 1.4003271,1.4003271 0 0 0 3.800699,11.499135 1.4003271,1.4003271 0 0 0 4.5364309,11.28854 c 0.9417199,1.419091 1.8213354,2.285684 2.7281872,2.778809 A 4.2009813,4.2009813 0 0 1 5.9011897,14.299824 4.2009813,4.2009813 0 0 1 2.362073,12.360721 C 2.5285088,11.955677 2.7145073,11.562325 2.9405271,11.20104 Z"
     fill="#fc7f7f"
     id="path2"
     style="stroke-width:1" />
  <path
     style="fill:none;stroke:#fc7f7f;stroke-width:0.9;stroke-linecap:round;stroke-miterlimit:3.6;stop-color:#000000"
     d="M 2.7477324,3.7642802 13.503079,3.697307"
     id="path345" />
  <path
     style="fill:none;stroke:#fc7f7f;stroke-width:0.9;stroke-linecap:round;stroke-miterlimit:3.6;stop-color:#000000"
     d="m 10.546974,1.6064784 2.99962,2.0082387"
     id="path347" />
  <path
     style="fill:none;stroke:#fc7f7f;stroke-width:0.9;stroke-linecap:round;stroke-miterlimit:3.6;stop-color:#000000"
     d="M 10.951619,5.8096158 13.380942,3.7121375"
     id="path349" />
</svg>
